<svg width="20" height="20" viewBox="0 0 20 20" fill="none" xmlns="http://www.w3.org/2000/svg">
<path d="M16.8748 2.29175H3.12484C2.90382 2.29175 2.69186 2.37955 2.53558 2.53583C2.3793 2.69211 2.2915 2.90407 2.2915 3.12508V16.8751C2.2915 17.0961 2.3793 17.3081 2.53558 17.4643C2.69186 17.6206 2.90382 17.7084 3.12484 17.7084H16.8748C17.0959 17.7084 17.3078 17.6206 17.4641 17.4643C17.6204 17.3081 17.7082 17.0961 17.7082 16.8751V3.12508C17.7082 2.90407 17.6204 2.69211 17.4641 2.53583C17.3078 2.37955 17.0959 2.29175 16.8748 2.29175V2.29175Z" stroke="#2BDE93" stroke-width="1.5" stroke-linecap="round" stroke-linejoin="round"/>
<path d="M7.19577 13.5125C7.45023 13.8505 7.78631 14.1184 8.17254 14.2911C8.55877 14.4638 8.98252 14.5357 9.4041 14.5H10.7374C11.3331 14.4978 11.9037 14.2599 12.3245 13.8383C12.7453 13.4167 12.9822 12.8457 12.9833 12.25V12.25C12.9833 11.654 12.7468 11.0823 12.3257 10.6605C11.9047 10.2386 11.3335 10.0011 10.7374 10H9.26243C8.66642 9.9989 8.09519 9.76136 7.67414 9.33952C7.25308 8.91768 7.0166 8.34602 7.0166 7.75C7.0166 7.15398 7.25308 6.58232 7.67414 6.16048C8.09519 5.73864 8.66642 5.5011 9.26243 5.5H10.5958C11.0173 5.46429 11.4411 5.53615 11.8273 5.70886C12.2136 5.88157 12.5496 6.14948 12.8041 6.4875M9.99993 5.5V4.375M9.99993 15.625V14.5" stroke="#2BDE93" stroke-width="1.5" stroke-linecap="round" stroke-linejoin="round"/>
</svg>
