<svg width="110" height="44" viewBox="0 0 110 44" fill="none" xmlns="http://www.w3.org/2000/svg">
<path d="M15.048 35.432C13.104 35.432 11.292 35.12 9.612 34.496C7.956 33.848 6.516 32.936 5.292 31.76C4.068 30.584 3.108 29.204 2.412 27.62C1.74 26.036 1.404 24.296 1.404 22.4C1.404 20.504 1.74 18.764 2.412 17.18C3.108 15.596 4.068 14.216 5.292 13.04C6.54 11.864 7.992 10.964 9.648 10.34C11.304 9.692 13.116 9.368 15.084 9.368C17.268 9.368 19.236 9.752 20.988 10.52C22.764 11.264 24.252 12.368 25.452 13.832L21.708 17.288C20.844 16.304 19.884 15.572 18.828 15.092C17.772 14.588 16.62 14.336 15.372 14.336C14.196 14.336 13.116 14.528 12.132 14.912C11.148 15.296 10.296 15.848 9.576 16.568C8.856 17.288 8.292 18.14 7.884 19.124C7.5 20.108 7.308 21.2 7.308 22.4C7.308 23.6 7.5 24.692 7.884 25.676C8.292 26.66 8.856 27.512 9.576 28.232C10.296 28.952 11.148 29.504 12.132 29.888C13.116 30.272 14.196 30.464 15.372 30.464C16.62 30.464 17.772 30.224 18.828 29.744C19.884 29.24 20.844 28.484 21.708 27.476L25.452 30.932C24.252 32.396 22.764 33.512 20.988 34.28C19.236 35.048 17.256 35.432 15.048 35.432ZM29.3903 35V9.8H40.2983C42.5543 9.8 44.4983 10.172 46.1303 10.916C47.7623 11.636 49.0223 12.68 49.9103 14.048C50.7983 15.416 51.2423 17.048 51.2423 18.944C51.2423 20.816 50.7983 22.436 49.9103 23.804C49.0223 25.148 47.7623 26.18 46.1303 26.9C44.4983 27.62 42.5543 27.98 40.2983 27.98H32.6303L35.2223 25.424V35H29.3903ZM45.4103 35L39.1103 25.856H45.3383L51.7103 35H45.4103ZM35.2223 26.072L32.6303 23.336H39.9743C41.7743 23.336 43.1183 22.952 44.0063 22.184C44.8943 21.392 45.3383 20.312 45.3383 18.944C45.3383 17.552 44.8943 16.472 44.0063 15.704C43.1183 14.936 41.7743 14.552 39.9743 14.552H32.6303L35.2223 11.78V26.072ZM55.863 35V9.8H66.771C69.027 9.8 70.971 10.172 72.603 10.916C74.235 11.636 75.495 12.68 76.383 14.048C77.271 15.416 77.715 17.048 77.715 18.944C77.715 20.816 77.271 22.436 76.383 23.804C75.495 25.148 74.235 26.18 72.603 26.9C70.971 27.62 69.027 27.98 66.771 27.98H59.103L61.695 25.424V35H55.863ZM71.883 35L65.583 25.856H71.811L78.183 35H71.883ZM61.695 26.072L59.103 23.336H66.447C68.247 23.336 69.591 22.952 70.479 22.184C71.367 21.392 71.811 20.312 71.811 18.944C71.811 17.552 71.367 16.472 70.479 15.704C69.591 14.936 68.247 14.552 66.447 14.552H59.103L61.695 11.78V26.072ZM87.2041 35V14.552H79.1401V9.8H101.1V14.552H93.0361V35H87.2041ZM104.771 35.288C103.811 35.288 102.983 34.964 102.287 34.316C101.615 33.644 101.279 32.792 101.279 31.76C101.279 30.728 101.615 29.9 102.287 29.276C102.983 28.628 103.811 28.304 104.771 28.304C105.755 28.304 106.583 28.628 107.255 29.276C107.927 29.9 108.263 30.728 108.263 31.76C108.263 32.792 107.927 33.644 107.255 34.316C106.583 34.964 105.755 35.288 104.771 35.288Z" fill="#FF4E6E"/>
</svg>
