<svg width="75" height="95" viewBox="0 0 75 95" fill="none" xmlns="http://www.w3.org/2000/svg">
<path fill-rule="evenodd" clip-rule="evenodd" d="M17 34V30H15V34H11V36H15V40H17V36H21V34H17ZM17 4V0H15V4H11V6H15V10H17V6H21V4H17ZM-13 34V30H-15V34H-19V36H-15V40H-13V36H-9V34H-13ZM-13 4V0H-15V4H-19V6H-15V10H-13V6H-9V4H-13Z" fill="white"/>
<path fill-rule="evenodd" clip-rule="evenodd" d="M71 34V30H69V34H65V36H69V40H71V36H75V34H71ZM71 4V0H69V4H65V6H69V10H71V6H75V4H71ZM41 34V30H39V34H35V36H39V40H41V36H45V34H41ZM41 4V0H39V4H35V6H39V10H41V6H45V4H41Z" fill="white"/>
<path fill-rule="evenodd" clip-rule="evenodd" d="M71 89V85H69V89H65V91H69V95H71V91H75V89H71ZM71 59V55H69V59H65V61H69V65H71V61H75V59H71ZM41 89V85H39V89H35V91H39V95H41V91H45V89H41ZM41 59V55H39V59H35V61H39V65H41V61H45V59H41Z" fill="white"/>
<path fill-rule="evenodd" clip-rule="evenodd" d="M17 89V85H15V89H11V91H15V95H17V91H21V89H17ZM17 59V55H15V59H11V61H15V65H17V61H21V59H17ZM-13 89V85H-15V89H-19V91H-15V95H-13V91H-9V89H-13ZM-13 59V55H-15V59H-19V61H-15V65H-13V61H-9V59H-13Z" fill="white"/>
</svg>
