<svg width="744" height="744" viewBox="0 0 744 744" fill="none" xmlns="http://www.w3.org/2000/svg">
<path d="M671.5 366.5C671.5 528.868 538.756 660.5 375 660.5C211.244 660.5 78.5 528.868 78.5 366.5C78.5 204.132 211.244 72.5 375 72.5C538.756 72.5 671.5 204.132 671.5 366.5Z" stroke="#6B6B6B"/>
<path d="M709.971 340.211C710.427 346.004 710.733 351.839 710.886 357.712L710.386 357.725C710.462 360.641 710.5 363.566 710.5 366.5C710.5 369.434 710.462 372.359 710.386 375.275L710.886 375.288C710.733 381.161 710.427 386.996 709.971 392.789L709.473 392.75C709.014 398.595 708.403 404.397 707.643 410.153L708.139 410.218C707.371 416.036 706.453 421.807 705.387 427.526L704.896 427.435C703.823 433.192 702.602 438.897 701.235 444.546L701.721 444.663C700.342 450.361 698.816 456.001 697.147 461.581L696.668 461.438C694.992 467.043 693.17 472.586 691.209 478.063L691.679 478.231C689.705 483.745 687.588 489.192 685.334 494.567L684.872 494.374C682.612 499.764 680.213 505.083 677.679 510.326L678.13 510.544C675.583 515.813 672.901 521.006 670.089 526.118L669.651 525.877C666.834 530.996 663.887 536.033 660.812 540.984L661.237 541.247C658.151 546.216 654.938 551.098 651.602 555.89L651.191 555.604C647.855 560.395 644.396 565.095 640.818 569.7L641.212 570.006C637.626 574.622 633.92 579.141 630.1 583.56L629.721 583.233C625.906 587.647 621.975 591.961 617.935 596.17L618.296 596.516C614.25 600.731 610.094 604.84 605.833 608.84L605.491 608.476C601.239 612.467 596.882 616.35 592.424 620.118L592.747 620.5C588.287 624.27 583.727 627.926 579.071 631.464L578.769 631.066C574.128 634.593 569.391 638.002 564.563 641.29L564.845 641.703C560.02 644.988 555.105 648.151 550.104 651.188L549.844 650.761C544.865 653.785 539.799 656.683 534.653 659.452L534.889 659.893C529.754 662.656 524.537 665.29 519.244 667.791L519.031 667.339C513.768 669.826 508.429 672.18 503.019 674.399L503.209 674.861C497.817 677.072 492.354 679.148 486.825 681.084L486.66 680.612C481.171 682.535 475.615 684.32 469.999 685.962L470.139 686.442C464.551 688.077 458.902 689.571 453.196 690.921L453.081 690.435C447.426 691.772 441.715 692.968 435.952 694.018L436.042 694.51C430.319 695.552 424.545 696.451 418.725 697.202L418.661 696.706C412.903 697.449 407.099 698.046 401.253 698.496L401.291 698.994C395.497 699.439 389.661 699.738 383.788 699.888L383.776 699.388C380.86 699.463 377.934 699.5 375 699.5C372.066 699.5 369.14 699.463 366.224 699.388L366.212 699.888C360.339 699.738 354.503 699.439 348.709 698.994L348.747 698.496C342.901 698.047 337.097 697.449 331.339 696.706L331.275 697.202C325.455 696.451 319.681 695.552 313.958 694.51L314.048 694.018C308.285 692.968 302.574 691.772 296.919 690.435L296.804 690.921C291.098 689.571 285.449 688.077 279.861 686.442L280.001 685.962C274.385 684.32 268.829 682.535 263.34 680.612L263.175 681.084C257.646 679.148 252.183 677.072 246.791 674.861L246.981 674.399C241.571 672.18 236.232 669.826 230.969 667.339L230.756 667.791C225.463 665.29 220.246 662.656 215.111 659.893L215.347 659.452C210.201 656.683 205.135 653.785 200.156 650.761L199.896 651.188C194.895 648.151 189.98 644.988 185.155 641.703L185.437 641.29C180.609 638.002 175.872 634.593 171.231 631.066L170.929 631.464C166.273 627.926 161.713 624.27 157.254 620.5L157.576 620.118C153.119 616.35 148.761 612.467 144.509 608.476L144.167 608.84C139.906 604.84 135.75 600.731 131.704 596.516L132.065 596.17C128.025 591.961 124.094 587.647 120.279 583.233L119.9 583.56C116.08 579.141 112.374 574.622 108.788 570.006L109.182 569.7C105.604 565.095 102.145 560.395 98.8088 555.604L98.3985 555.89C95.0621 551.098 91.8489 546.216 88.7633 541.247L89.1881 540.984C86.1134 536.033 83.1657 530.996 80.3494 525.877L79.9113 526.118C77.0986 521.006 74.4169 515.813 71.8705 510.544L72.3207 510.326C69.7873 505.083 67.3881 499.764 65.1275 494.374L64.6664 494.567C62.4121 489.192 60.2954 483.745 58.3207 478.231L58.7914 478.063C56.8298 472.586 55.0085 467.043 53.3319 461.438L52.8529 461.581C51.1838 456.002 49.6579 450.361 48.2794 444.663L48.7653 444.546C47.3985 438.897 46.1767 433.192 45.1042 427.435L44.6126 427.526C43.5471 421.807 42.6285 416.036 41.8611 410.219L42.3568 410.153C41.5975 404.397 40.9863 398.595 40.5271 392.75L40.0286 392.789C39.5735 386.996 39.2674 381.161 39.1144 375.288L39.6142 375.275C39.5382 372.359 39.5 369.434 39.5 366.5C39.5 363.566 39.5382 360.641 39.6142 357.725L39.1144 357.712C39.2674 351.839 39.5735 346.004 40.0286 340.211L40.5271 340.25C40.9863 334.405 41.5975 328.603 42.3568 322.847L41.8611 322.782C42.6285 316.964 43.547 311.193 44.6126 305.474L45.1041 305.565C46.1767 299.808 47.3985 294.103 48.7653 288.454L48.2793 288.337C49.6579 282.639 51.1838 276.999 52.8529 271.419L53.3319 271.562C55.0085 265.957 56.8298 260.414 58.7914 254.937L58.3207 254.769C60.2953 249.255 62.412 243.808 64.6664 238.433L65.1275 238.626C67.3881 233.236 69.7873 227.917 72.3207 222.674L71.8705 222.456C74.4169 217.187 77.0986 211.994 79.9113 206.882L80.3494 207.123C83.1657 202.004 86.1134 196.967 89.1881 192.016L88.7633 191.753C91.8489 186.784 95.0621 181.902 98.3984 177.11L98.8088 177.396C102.145 172.605 105.604 167.905 109.182 163.301L108.788 162.994C112.374 158.378 116.08 153.859 119.9 149.44L120.279 149.767C124.094 145.353 128.025 141.039 132.065 136.83L131.704 136.484C135.75 132.269 139.906 128.16 144.167 124.16L144.509 124.524C148.761 120.533 153.118 116.65 157.576 112.882L157.254 112.5C161.713 108.73 166.273 105.074 170.929 101.536L171.231 101.934C175.872 98.407 180.609 94.9977 185.437 91.7104L185.155 91.2971C189.98 88.0122 194.895 84.8489 199.896 81.8119L200.156 82.2393C205.135 79.2153 210.201 76.3166 215.347 73.5476L215.111 73.1073C220.246 70.3441 225.463 67.7099 230.756 65.2091L230.969 65.6612C236.232 63.1743 241.571 60.8196 246.981 58.6011L246.791 58.1385C252.183 55.9275 257.646 53.8518 263.175 51.9156L263.34 52.3875C268.829 50.465 274.385 48.6803 280.001 47.0375L279.861 46.5577C285.449 44.923 291.098 43.4287 296.804 42.0789L296.919 42.5655C302.574 41.2275 308.285 40.0317 314.048 38.982L313.958 38.4901C319.681 37.4475 325.455 36.5489 331.275 35.7981L331.339 36.294C337.097 35.5513 342.901 34.9535 348.747 34.5044L348.709 34.0059C354.503 33.5608 360.339 33.2615 366.212 33.1119L366.224 33.6117C369.14 33.5374 372.066 33.5 375 33.5C377.934 33.5 380.86 33.5374 383.776 33.6117L383.788 33.1119C389.661 33.2615 395.497 33.5608 401.291 34.0059L401.253 34.5044C407.099 34.9535 412.903 35.5513 418.661 36.294L418.725 35.7981C424.545 36.5489 430.319 37.4475 436.042 38.4901L435.952 38.982C441.715 40.0317 447.426 41.2275 453.081 42.5655L453.196 42.0789C458.902 43.4287 464.551 44.923 470.139 46.5576L469.999 47.0375C475.615 48.6803 481.171 50.465 486.66 52.3875L486.825 51.9156C492.354 53.8518 497.817 55.9275 503.209 58.1385L503.019 58.6011C508.429 60.8196 513.768 63.1743 519.031 65.6612L519.244 65.2091C524.537 67.7099 529.754 70.3441 534.889 73.1073L534.653 73.5476C539.799 76.3166 544.865 79.2153 549.844 82.2393L550.104 81.8119C555.105 84.8489 560.02 88.0122 564.845 91.2971L564.563 91.7104C569.391 94.9977 574.128 98.407 578.769 101.934L579.071 101.536C583.727 105.074 588.287 108.73 592.746 112.5L592.424 112.882C596.881 116.65 601.239 120.533 605.491 124.524L605.833 124.16C610.094 128.16 614.25 132.269 618.296 136.484L617.935 136.83C621.975 141.039 625.906 145.353 629.721 149.767L630.1 149.44C633.92 153.859 637.626 158.378 641.212 162.994L640.818 163.301C644.396 167.905 647.855 172.605 651.191 177.396L651.602 177.11C654.938 181.902 658.151 186.784 661.237 191.753L660.812 192.016C663.887 196.967 666.834 202.004 669.651 207.123L670.089 206.882C672.901 211.994 675.583 217.187 678.13 222.456L677.679 222.674C680.213 227.917 682.612 233.236 684.872 238.626L685.334 238.433C687.588 243.808 689.705 249.255 691.679 254.769L691.209 254.937C693.17 260.414 694.991 265.957 696.668 271.562L697.147 271.419C698.816 276.998 700.342 282.639 701.721 288.337L701.235 288.454C702.602 294.103 703.823 299.808 704.896 305.565L705.387 305.474C706.453 311.193 707.371 316.964 708.139 322.781L707.643 322.847C708.403 328.603 709.014 334.405 709.473 340.25L709.971 340.211Z" stroke="#6B6B6B" stroke-dasharray="17 17"/>
<circle cx="372" cy="372" r="371.5" stroke="#6B6B6B"/>
</svg>
