<svg width="766" height="744" viewBox="0 0 766 744" fill="none" xmlns="http://www.w3.org/2000/svg">
<rect x="31" y="315" width="60" height="101" fill="#131313"/>
<path d="M61.228 316.2C61.0694 316.193 60.9109 316.217 60.7619 316.273C60.6129 316.328 60.4765 316.412 60.3606 316.521C60.2447 316.629 60.1517 316.76 60.087 316.905C60.0224 317.05 59.9874 317.207 59.9841 317.366C59.9809 317.524 60.0094 317.682 60.068 317.83C60.1267 317.978 60.2143 318.112 60.3256 318.225C60.4369 318.339 60.5698 318.428 60.7164 318.49C60.863 318.551 61.0203 318.582 61.1792 318.582C67.1702 318.705 71.772 318.957 74.9418 319.329C76.5267 319.515 77.7562 319.733 78.5853 319.96C79.4145 320.187 79.803 320.54 79.6813 320.375C79.5316 320.171 79.8032 320.691 79.9494 321.371C80.0956 322.05 80.2484 322.981 80.3967 324.064C80.6933 326.232 80.9752 329.022 81.213 331.835C81.4507 334.647 81.6452 337.487 81.771 339.769C81.8967 342.051 81.9435 343.877 81.9199 344.282C81.8555 345.386 81.4918 348.515 81.1613 351.824C80.8308 355.133 80.5263 358.641 80.5898 360.902C80.6519 363.113 81.1533 371.593 81.2479 381.699C81.34 391.547 81.024 402.868 79.5776 411.058C75.4698 412.58 69.3301 413.408 61.2034 413.408C61.0455 413.405 60.8888 413.435 60.7423 413.494C60.5958 413.552 60.4624 413.64 60.35 413.751C60.2375 413.862 60.1483 413.994 60.0873 414.139C60.0264 414.285 59.995 414.441 59.995 414.599C59.995 414.757 60.0264 414.913 60.0873 415.059C60.1483 415.205 60.2375 415.337 60.35 415.448C60.4624 415.558 60.5958 415.646 60.7423 415.705C60.8888 415.764 61.0455 415.793 61.2034 415.791C69.8922 415.791 76.485 414.92 81.0906 413.045C81.2752 412.97 81.438 412.849 81.5641 412.695C81.6903 412.54 81.7756 412.357 81.8124 412.161C83.4223 403.59 83.7254 391.85 83.6302 381.677C83.535 371.504 83.0282 362.848 82.9717 360.835C82.9165 358.871 83.2045 355.343 83.5325 352.061C83.8604 348.778 84.2208 345.761 84.299 344.42C84.3466 343.603 84.2773 341.946 84.1501 339.638C84.0228 337.33 83.8273 334.472 83.5874 331.634C83.3475 328.796 83.0639 325.98 82.7576 323.741C82.6045 322.622 82.4465 321.649 82.2787 320.869C82.1109 320.09 82.0651 319.594 81.6011 318.963C81.0119 318.162 80.2394 317.943 79.215 317.662C78.1906 317.381 76.8739 317.156 75.2192 316.962C71.9097 316.574 67.2604 316.324 61.228 316.2V316.2Z" fill="#6B6B6B"/>
<path d="M61.2034 343.402C61.0455 343.4 60.8888 343.429 60.7422 343.488C60.5957 343.547 60.4624 343.634 60.35 343.745C60.2375 343.856 60.1483 343.988 60.0873 344.133C60.0264 344.279 59.995 344.435 59.995 344.593C59.995 344.751 60.0264 344.908 60.0873 345.053C60.1483 345.199 60.2375 345.331 60.35 345.442C60.4624 345.553 60.5957 345.64 60.7422 345.699C60.8888 345.758 61.0455 345.787 61.2034 345.785C62.4724 345.785 64.9773 345.988 66.5763 346.228C69.8682 346.723 72.3762 347.447 74.1576 348.308C73.442 352.114 72.3009 355.549 70.7421 358.628C67.5449 357.926 64.3631 357.555 61.2034 357.555C61.0455 357.553 60.8888 357.582 60.7422 357.641C60.5957 357.7 60.4624 357.788 60.35 357.898C60.2375 358.009 60.1483 358.141 60.0873 358.287C60.0264 358.433 59.995 358.589 59.995 358.747C59.995 358.905 60.0264 359.061 60.0873 359.207C60.1483 359.352 60.2375 359.484 60.35 359.595C60.4624 359.706 60.5957 359.794 60.7422 359.852C60.8888 359.911 61.0455 359.94 61.2034 359.938C64.4801 359.938 67.7865 360.338 71.1293 361.143C71.3848 361.205 71.6536 361.18 71.8936 361.073C72.1337 360.966 72.3316 360.782 72.4566 360.551C74.4862 356.792 75.8927 352.549 76.6856 347.839C76.7259 347.6 76.692 347.353 76.5884 347.134C76.4847 346.914 76.3163 346.731 76.1057 346.609C73.8989 345.337 70.8589 344.462 66.9305 343.872C65.1764 343.608 62.707 343.402 61.2034 343.402V343.402ZM78.1302 354.418C77.9104 354.42 77.6955 354.483 77.5094 354.6C77.3233 354.717 77.1731 354.883 77.0756 355.08C75.8337 357.592 74.8498 359.683 74.1204 361.365C74.0644 361.494 74.0316 361.632 74.0236 361.772C73.6854 367.775 73.5491 371.445 73.6443 373.094C73.7761 375.385 74.3243 380.331 77.7486 385.055C77.8983 385.261 78.1103 385.414 78.3535 385.491C78.5966 385.568 78.858 385.565 79.0992 385.482C79.3404 385.399 79.5487 385.241 79.6936 385.032C79.8384 384.822 79.9121 384.571 79.9038 384.316L79.1992 362.924L79.3346 355.631C79.3375 355.472 79.3084 355.313 79.2491 355.165C79.1897 355.017 79.1012 354.883 78.9889 354.77C78.8766 354.657 78.7427 354.567 78.5952 354.507C78.4477 354.446 78.2896 354.416 78.1302 354.418V354.418ZM76.8485 361.16L76.8159 362.91C76.8155 362.931 76.8157 362.951 76.8164 362.972L77.3549 379.316C76.3573 376.687 76.1019 374.33 76.0229 372.957C75.9501 371.696 76.0669 367.953 76.392 362.131C76.5052 361.871 76.7222 361.441 76.8485 361.16H76.8485ZM72.6879 382.271C72.6093 382.269 72.5307 382.275 72.4533 382.289C69.1654 382.863 65.4215 383.114 61.2271 383.031C61.0693 383.025 60.912 383.051 60.7643 383.107C60.6167 383.163 60.4816 383.248 60.367 383.357C60.2524 383.465 60.1605 383.596 60.0967 383.74C60.0329 383.884 59.9985 384.04 59.9953 384.198C59.9922 384.356 60.0205 384.513 60.0786 384.66C60.1366 384.806 60.2233 384.94 60.3335 385.053C60.4438 385.166 60.5754 385.256 60.7207 385.318C60.8661 385.38 61.0222 385.412 61.1801 385.413C65.0441 385.49 68.5486 385.276 71.7366 384.799C72.6547 388.726 73.2583 392.906 73.5423 397.342C70.7779 398.019 66.6816 398.409 61.2034 398.409C61.0455 398.407 60.8888 398.436 60.7422 398.495C60.5957 398.554 60.4624 398.641 60.35 398.752C60.2375 398.863 60.1483 398.995 60.0873 399.141C60.0264 399.286 59.995 399.443 59.995 399.6C59.995 399.758 60.0264 399.915 60.0873 400.06C60.1483 400.206 60.2375 400.338 60.35 400.449C60.4624 400.56 60.5957 400.647 60.7422 400.706C60.8888 400.765 61.0455 400.794 61.2034 400.792C67.3859 400.792 71.9876 400.364 75.1493 399.412C75.4048 399.335 75.6271 399.175 75.7806 398.956C75.9341 398.738 76.0099 398.475 75.9959 398.208C75.714 392.866 74.9882 387.854 73.8141 383.173C73.7508 382.92 73.6063 382.695 73.4029 382.532C73.1995 382.369 72.9483 382.278 72.6879 382.271V382.271ZM82.7571 329.869C82.5992 329.867 82.4425 329.896 82.296 329.955C82.1495 330.014 82.0161 330.101 81.9037 330.212C81.7913 330.323 81.702 330.455 81.6411 330.601C81.5801 330.746 81.5487 330.903 81.5487 331.061C81.5487 331.219 81.5801 331.375 81.6411 331.52C81.702 331.666 81.7913 331.798 81.9037 331.909C82.0161 332.02 82.1495 332.107 82.296 332.166C82.4425 332.225 82.5992 332.254 82.7571 332.252H83.0848V339.004C82.7929 339.061 82.5328 339.225 82.3557 339.464C82.1786 339.703 82.0972 340 82.1275 340.295C82.1578 340.591 82.2977 340.865 82.5196 341.063C82.7415 341.261 83.0294 341.369 83.3268 341.365C84.5403 341.365 85.4676 340.322 85.4676 339.159V332.076C85.4676 330.87 84.4663 329.869 83.2611 329.869H82.7571ZM82.5398 388.726C82.2429 388.723 81.9556 388.831 81.7342 389.029C81.5128 389.227 81.3733 389.5 81.343 389.796C81.3128 390.091 81.3939 390.387 81.5705 390.626C81.7471 390.864 82.0064 391.029 82.2978 391.086V397.861C82.0059 397.918 81.7458 398.082 81.5687 398.321C81.3916 398.56 81.3102 398.856 81.3405 399.152C81.3709 399.448 81.5107 399.721 81.7326 399.919C81.9545 400.117 82.2424 400.225 82.5398 400.222C83.7529 400.222 84.6806 399.179 84.6806 398.016V390.933C84.6806 389.769 83.7533 388.726 82.5398 388.726ZM74.9087 316.998C74.6312 316.986 74.358 317.071 74.1364 317.238C73.9148 317.406 73.7588 317.646 73.6952 317.916C73.6317 318.187 73.6646 318.471 73.7884 318.719C73.9122 318.968 74.119 319.166 74.3731 319.278C74.2789 319.235 74.4889 319.359 74.7179 319.806C74.8388 320.042 74.977 320.535 75.1098 320.913C75.0482 320.921 74.9754 320.946 74.9264 320.949C75.0474 320.943 74.7569 320.937 74.3982 320.887C74.0395 320.837 73.5361 320.757 72.8992 320.647C71.7682 320.453 70.0542 320.132 68.0814 319.754V318.815C68.0836 318.657 68.0545 318.501 67.9956 318.354C67.9367 318.208 67.8493 318.074 67.7385 317.962C67.6276 317.849 67.4955 317.76 67.3499 317.699C67.2042 317.638 67.0479 317.607 66.89 317.607C66.7321 317.607 66.5758 317.638 66.4301 317.699C66.2845 317.76 66.1524 317.849 66.0415 317.962C65.9307 318.074 65.8433 318.208 65.7844 318.354C65.7255 318.501 65.6964 318.657 65.6986 318.815V320.379C65.6986 321.213 66.2016 321.822 67.0203 321.98C69.3702 322.434 71.1923 322.772 72.4957 322.996C73.1474 323.108 73.6685 323.191 74.0701 323.247C74.4717 323.303 74.6774 323.344 75.0302 323.329C75.5276 323.307 75.9957 323.206 76.4208 323.065C76.6333 322.994 76.8297 322.917 77.0426 322.793C77.2554 322.668 77.6704 322.602 77.7904 321.763C77.8131 321.604 77.8033 321.441 77.7616 321.286C77.4832 320.248 77.1898 319.405 76.8387 318.72C76.4876 318.034 76.0926 317.446 75.3681 317.113C75.2242 317.045 75.068 317.006 74.9087 316.998V316.998ZM85.1925 351.908C84.9613 351.896 84.7171 351.912 84.4274 351.986C83.6225 352.191 82.7816 352.633 81.6979 353.304C81.561 353.384 81.4417 353.491 81.3468 353.618C81.2518 353.746 81.1833 353.89 81.1452 354.045C81.1071 354.199 81.1001 354.359 81.1248 354.516C81.1494 354.672 81.2051 354.823 81.2887 354.958C81.3722 355.093 81.4819 355.21 81.6112 355.302C81.7406 355.394 81.887 355.459 82.0419 355.494C82.1969 355.528 82.3571 355.532 82.5134 355.503C82.6696 355.475 82.8186 355.416 82.9517 355.329C83.9387 354.719 84.6953 354.377 85.0147 354.295C84.8569 354.336 85.1495 354.294 85.4811 354.351C85.8126 354.407 86.2354 354.513 86.6427 354.642C87.0499 354.77 87.4468 354.924 87.7284 355.058C87.8651 355.123 87.9752 355.213 88.0333 355.257C88.0674 355.338 88.3134 355.846 88.4484 356.324C88.4729 356.41 88.4763 356.457 88.4954 356.538C88.16 356.643 87.7316 356.757 87.217 356.83C86.0937 356.99 84.708 356.954 83.5394 356.415C83.3969 356.346 83.242 356.307 83.0839 356.298C82.9258 356.29 82.7676 356.313 82.6186 356.367C82.4696 356.42 82.3327 356.503 82.216 356.61C82.0992 356.717 82.005 356.846 81.9388 356.99C81.8725 357.133 81.8356 357.289 81.8302 357.447C81.8247 357.605 81.8509 357.763 81.9071 357.911C81.9633 358.059 82.0485 358.194 82.1576 358.309C82.2667 358.424 82.3976 358.516 82.5426 358.579C84.2975 359.388 86.1276 359.393 87.553 359.189C88.2657 359.088 88.8808 358.932 89.3601 358.773C89.5998 358.694 89.8041 358.615 89.9842 358.532C90.1643 358.45 90.2548 358.488 90.5962 358.124C90.9588 357.737 90.9536 357.441 90.9713 357.233C90.989 357.025 90.9761 356.859 90.9564 356.692C90.9171 356.356 90.8392 356.02 90.7414 355.675C90.5458 354.984 90.3573 354.361 89.9265 353.765C89.5186 353.2 89.1756 353.108 88.7551 352.908C88.3346 352.707 87.8557 352.526 87.3603 352.37C86.8649 352.213 86.3584 352.083 85.8808 352.001C85.6421 351.961 85.4238 351.92 85.1925 351.908V351.908Z" fill="#6B6B6B"/>
<path d="M60.7719 316.2C54.7396 316.324 50.0903 316.574 46.7808 316.962C45.1261 317.156 43.8094 317.381 42.785 317.662C41.7605 317.943 40.9881 318.162 40.3989 318.963C39.9349 319.594 39.8891 320.09 39.7213 320.869C39.5534 321.649 39.3955 322.622 39.2424 323.741C38.9361 325.98 38.6525 328.796 38.4126 331.634C38.1727 334.472 37.9772 337.33 37.8499 339.638C37.7227 341.946 37.6534 343.603 37.701 344.42C37.7791 345.761 38.1396 348.778 38.4675 352.061C38.7955 355.343 39.0835 358.871 39.0283 360.835C38.9718 362.848 38.465 371.504 38.3698 381.677C38.2746 391.85 38.5777 403.59 40.1876 412.161C40.2244 412.357 40.3097 412.54 40.4358 412.695C40.5619 412.849 40.7248 412.97 40.9094 413.045C45.515 414.92 52.1078 415.791 60.7966 415.791C60.9545 415.793 61.1112 415.764 61.2577 415.705C61.4042 415.646 61.5376 415.558 61.65 415.448C61.7624 415.337 61.8517 415.205 61.9127 415.059C61.9736 414.913 62.005 414.757 62.005 414.599C62.005 414.441 61.9736 414.285 61.9127 414.139C61.8517 413.994 61.7624 413.862 61.65 413.751C61.5376 413.64 61.4042 413.552 61.2577 413.494C61.1112 413.435 60.9545 413.405 60.7966 413.408C52.6699 413.408 46.5302 412.58 42.4224 411.058C40.976 402.868 40.66 391.547 40.7521 381.699C40.8467 371.593 41.3481 363.113 41.4102 360.902C41.4737 358.641 41.1692 355.133 40.8387 351.824C40.5081 348.515 40.1445 345.386 40.0801 344.282C40.0565 343.877 40.1032 342.051 40.229 339.769C40.3548 337.487 40.5492 334.647 40.787 331.835C41.0248 329.022 41.3067 326.232 41.6033 324.064C41.7516 322.981 41.9043 322.05 42.0506 321.371C42.1968 320.691 42.4684 320.171 42.3186 320.375C42.197 320.54 42.5854 320.187 43.4146 319.96C44.2438 319.733 45.4733 319.515 47.0582 319.329C50.228 318.957 54.8298 318.705 60.8208 318.582C60.9797 318.582 61.137 318.551 61.2836 318.49C61.4302 318.428 61.563 318.339 61.6744 318.225C61.7857 318.112 61.8733 317.978 61.9319 317.83C61.9906 317.682 62.0191 317.524 62.0158 317.366C62.0126 317.207 61.9776 317.05 61.913 316.905C61.8483 316.76 61.7553 316.629 61.6394 316.521C61.5235 316.412 61.3871 316.328 61.2381 316.273C61.0891 316.217 60.9306 316.193 60.7719 316.2V316.2Z" fill="#6B6B6B"/>
<path d="M60.7966 343.402C59.2931 343.402 56.8236 343.608 55.0695 343.872C51.1411 344.462 48.1011 345.337 45.8943 346.609C45.6837 346.731 45.5153 346.914 45.4117 347.134C45.308 347.353 45.2741 347.6 45.3144 347.839C46.1073 352.549 47.5138 356.792 49.5434 360.551C49.6684 360.782 49.8663 360.966 50.1064 361.073C50.3465 361.18 50.6152 361.205 50.8707 361.143C54.2135 360.338 57.5199 359.938 60.7966 359.938C60.9545 359.94 61.1113 359.911 61.2578 359.852C61.4043 359.794 61.5376 359.706 61.6501 359.595C61.7625 359.484 61.8518 359.352 61.9127 359.207C61.9736 359.061 62.005 358.905 62.005 358.747C62.005 358.589 61.9736 358.433 61.9127 358.287C61.8518 358.141 61.7625 358.009 61.6501 357.898C61.5376 357.788 61.4043 357.7 61.2578 357.641C61.1113 357.582 60.9545 357.553 60.7966 357.555C57.637 357.555 54.4551 357.926 51.258 358.628C49.6991 355.549 48.5581 352.114 47.8424 348.308C49.6239 347.447 52.1319 346.723 55.4237 346.228C57.0227 345.988 59.5276 345.785 60.7966 345.785C60.9545 345.787 61.1113 345.758 61.2578 345.699C61.4043 345.64 61.5376 345.553 61.6501 345.442C61.7625 345.331 61.8518 345.199 61.9127 345.053C61.9736 344.908 62.005 344.751 62.005 344.593C62.005 344.435 61.9736 344.279 61.9127 344.133C61.8518 343.988 61.7625 343.856 61.6501 343.745C61.5376 343.634 61.4043 343.547 61.2578 343.488C61.1113 343.429 60.9545 343.4 60.7966 343.402V343.402ZM43.8698 354.418C43.7104 354.416 43.5523 354.446 43.4048 354.507C43.2573 354.567 43.1234 354.657 43.0111 354.77C42.8988 354.883 42.8103 355.017 42.751 355.165C42.6916 355.313 42.6625 355.472 42.6654 355.631L42.8008 362.924L42.0962 384.316C42.0879 384.571 42.1616 384.822 42.3065 385.032C42.4513 385.241 42.6596 385.399 42.9008 385.482C43.1421 385.565 43.4034 385.568 43.6466 385.491C43.8897 385.414 44.1017 385.261 44.2515 385.055C47.6757 380.331 48.2239 375.385 48.3558 373.094V373.094C48.4509 371.444 48.3146 367.775 47.9765 361.772C47.9684 361.632 47.9357 361.494 47.8797 361.365C47.1502 359.683 46.1663 357.592 44.9244 355.08C44.8269 354.883 44.6767 354.717 44.4906 354.6C44.3045 354.483 44.0896 354.42 43.8698 354.418V354.418ZM45.1515 361.16C45.2778 361.441 45.4949 361.871 45.6081 362.131C45.9331 367.953 46.0499 371.696 45.9771 372.957C45.8981 374.33 45.6427 376.687 44.6452 379.316L45.1836 362.972C45.1843 362.951 45.1845 362.931 45.1841 362.91L45.1515 361.16ZM49.3094 382.271C49.0494 382.278 48.7988 382.37 48.596 382.533C48.3931 382.696 48.2491 382.92 48.1859 383.173C47.0118 387.854 46.286 392.866 46.0041 398.208C45.9901 398.475 46.066 398.738 46.2194 398.957C46.3729 399.175 46.5952 399.335 46.8507 399.412C50.0124 400.364 54.6141 400.792 60.7966 400.792C60.9545 400.794 61.1113 400.765 61.2578 400.706C61.4043 400.647 61.5376 400.56 61.6501 400.449C61.7625 400.338 61.8518 400.206 61.9127 400.06C61.9736 399.915 62.005 399.758 62.005 399.6C62.005 399.443 61.9736 399.286 61.9127 399.141C61.8518 398.995 61.7625 398.863 61.6501 398.752C61.5376 398.641 61.4043 398.554 61.2578 398.495C61.1113 398.436 60.9545 398.407 60.7966 398.409C55.3184 398.409 51.2221 398.019 48.4577 397.342C48.7417 392.906 49.3453 388.726 50.2634 384.799C53.4514 385.276 56.9559 385.49 60.8199 385.413C60.9778 385.412 61.134 385.38 61.2793 385.318C61.4246 385.256 61.5562 385.166 61.6665 385.053C61.7767 384.94 61.8634 384.806 61.9214 384.66C61.9795 384.513 62.0078 384.356 62.0047 384.198C62.0016 384.04 61.9671 383.884 61.9033 383.74C61.8395 383.596 61.7476 383.465 61.633 383.357C61.5184 383.248 61.3833 383.163 61.2357 383.107C61.088 383.051 60.9307 383.025 60.7729 383.031C56.5785 383.114 52.8346 382.863 49.5467 382.289C49.4684 382.275 49.3889 382.269 49.3094 382.271V382.271ZM38.7389 329.869C37.5337 329.869 36.5324 330.87 36.5324 332.076V339.159C36.5324 340.322 37.4598 341.365 38.6733 341.365C38.9698 341.368 39.2565 341.259 39.4773 341.061C39.6981 340.863 39.8373 340.59 39.8675 340.295C39.8978 340 39.817 339.705 39.6409 339.466C39.4648 339.228 39.2061 339.063 38.9153 339.005V332.252H39.2429C39.4008 332.254 39.5575 332.225 39.704 332.166C39.8505 332.107 39.9839 332.02 40.0963 331.909C40.2087 331.798 40.298 331.666 40.359 331.52C40.4199 331.375 40.4513 331.219 40.4513 331.061C40.4513 330.903 40.4199 330.746 40.359 330.601C40.298 330.455 40.2087 330.323 40.0963 330.212C39.9839 330.101 39.8505 330.014 39.704 329.955C39.5575 329.896 39.4008 329.867 39.2429 329.869H38.7389ZM39.4602 388.726C38.2467 388.726 37.3194 389.769 37.3194 390.933V398.016C37.3194 399.179 38.2471 400.222 39.4602 400.222C39.7567 400.224 40.0434 400.116 40.2643 399.918C40.4851 399.72 40.6243 399.447 40.6545 399.152C40.6848 398.857 40.604 398.561 40.4279 398.323C40.2518 398.084 39.993 397.92 39.7022 397.862V391.087C39.9947 391.031 40.2554 390.867 40.4331 390.628C40.6107 390.389 40.6924 390.092 40.6621 389.796C40.6317 389.499 40.4915 389.225 40.269 389.027C40.0466 388.829 39.758 388.721 39.4602 388.726V388.726ZM47.1746 316.997C46.9871 316.993 46.8012 317.032 46.6319 317.113C45.9074 317.446 45.5124 318.034 45.1613 318.72C44.8102 319.405 44.5168 320.248 44.2384 321.286C44.1967 321.441 44.1869 321.604 44.2096 321.763C44.3296 322.602 44.7446 322.668 44.9575 322.793C45.1703 322.917 45.3667 322.994 45.5792 323.065C46.0043 323.206 46.4724 323.307 46.9698 323.329C47.3226 323.344 47.5283 323.303 47.9299 323.247C48.3315 323.191 48.8527 323.108 49.5044 322.996C50.8076 322.772 52.6296 322.434 54.9792 321.98C55.7983 321.822 56.3014 321.213 56.3014 320.379V318.815C56.3036 318.657 56.2745 318.501 56.2156 318.354C56.1567 318.208 56.0693 318.074 55.9585 317.962C55.8476 317.849 55.7155 317.76 55.5699 317.699C55.4242 317.638 55.2679 317.607 55.11 317.607C54.9521 317.607 54.7958 317.638 54.6501 317.699C54.5045 317.76 54.3724 317.849 54.2615 317.962C54.1507 318.074 54.0633 318.208 54.0044 318.354C53.9455 318.501 53.9164 318.657 53.9186 318.815V319.754C51.9459 320.132 50.2318 320.453 49.1009 320.647C48.4639 320.757 47.9605 320.837 47.6018 320.887C47.2432 320.937 46.9526 320.943 47.0736 320.949C47.0246 320.946 46.9519 320.921 46.8902 320.913C47.023 320.535 47.1612 320.042 47.2821 319.806C47.5112 319.359 47.7211 319.235 47.627 319.278C47.8745 319.169 48.0775 318.978 48.2023 318.738C48.3272 318.498 48.3665 318.222 48.3138 317.957C48.2612 317.691 48.1196 317.451 47.9126 317.277C47.7055 317.103 47.4452 317.004 47.1746 316.997V316.997ZM36.8075 351.908C36.5762 351.92 36.358 351.961 36.1192 352.001C35.6416 352.083 35.1351 352.213 34.6397 352.37C34.1443 352.526 33.6654 352.707 33.2449 352.908C32.8244 353.108 32.4814 353.2 32.0735 353.765C31.6427 354.361 31.4542 354.984 31.2586 355.675C31.1608 356.02 31.083 356.356 31.0436 356.692C31.0239 356.859 31.011 357.025 31.0287 357.233C31.0464 357.441 31.0413 357.737 31.4038 358.124C31.7452 358.488 31.8357 358.45 32.0158 358.532C32.1959 358.615 32.4002 358.694 32.6399 358.773C33.1192 358.932 33.7343 359.088 34.447 359.189C35.8724 359.393 37.7025 359.388 39.4574 358.579C39.6025 358.516 39.7333 358.424 39.8424 358.309C39.9516 358.194 40.0367 358.059 40.0929 357.911C40.1491 357.763 40.1753 357.605 40.1698 357.447C40.1644 357.289 40.1275 357.133 40.0613 356.99C39.995 356.846 39.9008 356.717 39.784 356.61C39.6673 356.503 39.5304 356.42 39.3814 356.367C39.2324 356.313 39.0742 356.29 38.9161 356.298C38.758 356.307 38.6031 356.346 38.4606 356.415C37.292 356.954 35.9063 356.99 34.783 356.83C34.2684 356.757 33.84 356.643 33.5046 356.538C33.5237 356.457 33.5272 356.41 33.5516 356.324C33.6867 355.846 33.9326 355.338 33.9667 355.257C34.0249 355.213 34.1349 355.123 34.2716 355.058C34.5532 354.924 34.9501 354.77 35.3573 354.642C35.7646 354.513 36.1874 354.407 36.519 354.351C36.8505 354.294 37.1431 354.336 36.9853 354.295C37.3047 354.377 38.0613 354.719 39.0484 355.329C39.1814 355.416 39.3304 355.475 39.4867 355.503C39.6429 355.532 39.8032 355.528 39.9581 355.494C40.113 355.459 40.2594 355.394 40.3888 355.302C40.5181 355.21 40.6278 355.093 40.7113 354.958C40.7949 354.823 40.8506 354.672 40.8752 354.516C40.8999 354.359 40.8929 354.199 40.8548 354.045C40.8167 353.89 40.7482 353.746 40.6533 353.618C40.5583 353.491 40.439 353.384 40.3021 353.304C39.2184 352.633 38.3775 352.191 37.5726 351.986C37.2829 351.912 37.0387 351.896 36.8075 351.908V351.908Z" fill="#6B6B6B"/>
</svg>
